<?xml version="1.0" encoding="UTF-8" standalone="no"?>
<!-- Created with Inkscape (http://www.inkscape.org/) -->

<svg
   xmlns:dc="http://purl.org/dc/elements/1.1/"
   xmlns:cc="http://creativecommons.org/ns#"
   xmlns:rdf="http://www.w3.org/1999/02/22-rdf-syntax-ns#"
   xmlns:svg="http://www.w3.org/2000/svg"
   xmlns="http://www.w3.org/2000/svg"
   xmlns:sodipodi="http://sodipodi.sourceforge.net/DTD/sodipodi-0.dtd"
   xmlns:inkscape="http://www.inkscape.org/namespaces/inkscape"
   width="210mm"
   height="297mm"
   viewBox="0 0 210 297"
   version="1.1"
   id="svg8"
   inkscape:version="0.92.5 (2060ec1f9f, 2020-04-08)"
   sodipodi:docname="toyplane.svg">
  <defs
     id="defs2" />
  <sodipodi:namedview
     id="base"
     pagecolor="#ffffff"
     bordercolor="#666666"
     borderopacity="1.0"
     inkscape:pageopacity="0.0"
     inkscape:pageshadow="2"
     inkscape:zoom="1.4142136"
     inkscape:cx="-230.1088"
     inkscape:cy="1230.5987"
     inkscape:document-units="mm"
     inkscape:current-layer="layer1"
     showgrid="false"
     inkscape:window-width="1920"
     inkscape:window-height="1007"
     inkscape:window-x="0"
     inkscape:window-y="0"
     inkscape:window-maximized="1"
     inkscape:snap-global="false" />
  <metadata
     id="metadata5">
    <rdf:RDF>
      <cc:Work
         rdf:about="">
        <dc:format>image/svg+xml</dc:format>
        <dc:type
           rdf:resource="http://purl.org/dc/dcmitype/StillImage" />
        <dc:title />
      </cc:Work>
    </rdf:RDF>
  </metadata>
  <g
     inkscape:label="Capa 1"
     inkscape:groupmode="layer"
     id="layer1">
    <path
       inkscape:connector-curvature="0"
       id="path864"
       d="m -8.9629384,-3.064892 c 0.0646,-0.07142 0.62321,-0.277711 1.01947,-0.376485 0.17616,-0.04391 0.59055,-0.13538 0.92086,-0.20326 0.87827,-0.180492 1.13324,-0.243635 1.40294,-0.347445 0.27904,-0.107402 0.43023,-0.198075 0.6938,-0.416099 0.2132,-0.17635 0.34883,-0.234134 0.5991,-0.255242 0.33008,-0.02784 0.75179,0.109785 0.94238,0.307547 0.17538,0.181966 0.3922,0.672707 0.3922,0.887661 0,0.06867 -0.009,0.07726 -0.0831,0.07726 -0.0457,0 -0.94953,0.05404 -2.00854,0.120095 -2.76653,0.172555 -3.55755,0.223666 -3.75384,0.24255 -0.1721,0.01656 -0.17311,0.01626 -0.1253,-0.03659 z"
       style="fill:#a15e49;stroke-width:0.99999994" />
    <path
       inkscape:connector-curvature="0"
       id="path874"
       d="M 12.688035,1.465476 C 12.490467,2.755546 12.238261,3.054806 11.079668,3.373919 10.482828,3.538307 9.187174,3.765701 9.153922,3.711897 9.143432,3.694937 9.098992,3.693827 9.031362,3.708797 8.798804,3.760437 8.029638,3.793277 7.44387,3.776587 5.882362,3.732087 0.343095,3.470337 -2.485394,3.307388 -9.066147,2.928274 -13.340624,2.403266 -15.638519,1.691871 -16.176069,1.525453 -16.392937,1.442732 -16.809274,1.245305 -17.255156,1.033868 -17.360589,0.971164 -17.636713,0.753204 -17.937856,0.515496 -17.960755,0.490341 -18.110241,0.233027 l -0.157083,-0.270389 0.01781,-0.253421 c 0.01585,-0.225472 0.02799,-0.270166 0.110051,-0.40526 l 0.09224,-0.151839 -0.08197,-0.210569 c -0.04508,-0.115813 -0.09083,-0.227858 -0.101661,-0.248989 -0.01328,-0.02591 -0.12773,-0.05389 -0.351445,-0.08594 -0.566278,-0.08111 -0.636472,-0.134167 -0.600312,-0.453774 0.03814,-0.337147 0.175285,-0.534511 0.462069,-0.664977 0.119038,-0.05415 0.166823,-0.09034 0.166823,-0.126348 0,-0.02775 -0.03049,-0.187402 -0.06776,-0.354779 -0.140382,-0.630499 -0.278689,-1.573082 -0.3213,-2.189705 l -0.04175,-0.604186 0.06852,-0.472565 c 0.03769,-0.259911 0.07665,-0.486492 0.08659,-0.503514 0.0099,-0.01702 0.110594,-0.15114 0.223679,-0.298041 l 0.205609,-0.267091 0.323714,-0.10539 0.323715,-0.10539 0.380221,0.06164 0.380221,0.06164 0.34699,0.201739 c 0.486033,0.282579 0.471348,0.270861 0.877504,0.700202 0.431887,0.456542 0.963947,1.196296 1.411021,1.961831 0.290001,0.496573 1.034575,1.869602 1.034575,1.907803 0,0.04744 0.09381,0.0509 0.37498,0.01382 0.409137,-0.05396 1.274838,-0.13178 2.665584,-0.23961 l 4.2707185,-0.295576 c 3.0852185,-0.203656 3.9696815,-0.254246 5.0385855,-0.323533 1.068905,-0.06929 2.003519,-0.125124 3.771942,-0.2492215 1.768423,-0.1240975 5.174139,-0.076778 5.965459,0.00203 0.161484,0.01608 0.3874095,0.024451 0.3874095,0.024451 0.1477234,0.018339 1.2537215,0.186532 1.7479155,0.309578 0.680721,0.169487 1.021092,0.318844 1.262667,0.554066 0.171111,0.166612 0.269371,0.334498 0.361897,0.618343 0.0558,0.171179 0.168849,0.65911 0.177117,0.869291 0.07326,1.18371077 0.09841,1.70724803 -0.01407,2.82612 z"
       style="fill:#ff4525;fill-opacity:1;stroke-width:0.99999994"
       sodipodi:nodetypes="cscccssscccccccccccsccccccccccccccscccccccccscc" />
    <path
       style="fill:#bbece5;fill-opacity:1;stroke:none;stroke-width:0.26458332px;stroke-linecap:butt;stroke-linejoin:miter;stroke-opacity:1"
       d="m 0.91777999,-3.6591679 0.49608721,-0.4283969 0.3596679,-0.252181 0.3265951,-0.1777669 0.3555338,-0.1322917 0.322461,-0.078548 0.3720703,-0.049609 0.3886067,-0.028939 0.1529623,0.012401 0.1694987,0.041341 0.1860351,0.066146 0.1901693,0.07028 0.107487,0.074414 0.1198893,0.1198893 0.2232422,0.2728516 0.1364258,0.2108398 0.041341,0.1198893 -0.078548,0.074414 -0.9715169,0.2811198 -1.4841471,0.09095 -1.0624674,-0.1529622 z"
       id="path863"
       inkscape:connector-curvature="0" />
    <path
       style="fill:#eb1d00;fill-opacity:1;stroke:none;stroke-width:0.26458332px;stroke-linecap:butt;stroke-linejoin:miter;stroke-opacity:1"
       d="m -3.9756341,-0.79838829 -0.046772,-0.37417731 4.20949507,-0.7015825 1.44993713,-0.1870887 1.403165,-0.046772 1.1225321,0.093544 0.9354433,0.280633 0.4677217,0.280633 0.2338607,0.4209495 -0.093544,0.37417728 -0.374178,0.46772188 L 4.3965836,0.04351069 3.086963,0.13705502 1.0289877,0.09028286 -1.8708867,-0.33066664 Z"
       id="path865"
       inkscape:connector-curvature="0" />
    <path
       style="fill:#e81900;fill-opacity:1;stroke:none;stroke-width:0.26458332px;stroke-linecap:butt;stroke-linejoin:miter;stroke-opacity:1"
       d="m -19.129816,-1.546743 v -0.5144938 l 0.514494,-0.561266 1.30962,-0.046772 2.338609,0.1403164 0.467721,0.2338609 0.327405,0.4209495 -0.23386,0.4209495 -1.122532,0.1870886 -2.285003,-0.049494 z"
       id="path867"
       inkscape:connector-curvature="0"
       sodipodi:nodetypes="ccccccccccc" />
    <path
       style="fill:#40595b;fill-opacity:1;stroke:none;stroke-width:0.26458332px;stroke-linecap:butt;stroke-linejoin:miter;stroke-opacity:1"
       d="m 9.7987688,-3.6281047 0.2572472,0.4911078 0.116931,0.6080383 0.140316,1.1926902 0.07016,1.30962068 -0.07016,1.12253202 -0.09354,0.8652851 -0.210474,0.818513 L 9.7519968,3.4111065 9.5649082,3.6917396 10.03263,3.6449673 10.874529,3.4578788 11.552726,3.247404 12.184149,2.8732267 12.558326,2.2418023 12.675257,1.3765173 V -1.3128823 L 12.558326,-2.34187 12.184149,-2.8797498 11.646269,-3.207155 10.734212,-3.464402 Z"
       id="path896"
       inkscape:connector-curvature="0"
       sodipodi:nodetypes="cccccccccccccccccccccc" />
  </g>
</svg>
